<svg width="159" height="185" viewBox="0 0 159 185" fill="none" xmlns="http://www.w3.org/2000/svg">
<path d="M115.612 69.2339C116.67 69.7161 117.464 69.9945 118.224 70.3723C125.731 73.4499 133.139 76.4926 140.646 79.5702C143.094 80.5397 143.495 82.576 141.801 84.5467C141.259 85.1374 140.752 85.6288 140.146 86.0854C129.291 95.1035 117.498 102.343 104.668 107.77C93.8502 112.229 83.3842 117.593 73.082 123.125C67.31 126.231 61.4735 129.203 55.5377 132.14C50.0042 134.883 44.6294 138.129 39.5177 141.578C34.1726 145.056 28.5347 148.098 22.8968 151.139C21.3867 151.948 19.5839 152.32 17.8507 152.493C16.3857 152.537 14.5931 152.243 13.2724 151.557C8.98291 149.161 8.04624 145.153 11.0029 141.172C12.9061 138.605 15.3007 136.545 17.5664 134.217C18.411 133.398 19.3549 132.614 20.1002 131.76C32.2586 118.07 44.3526 104.245 56.511 90.5547C63.5914 82.4436 70.6023 74.5311 77.7769 66.7875C90.566 53.2065 105.95 43.9919 123.835 38.7761C126.676 37.9878 129.482 37.2989 132.423 36.5455C130.447 35.1838 129.484 35.0692 128.763 36.4891C127.67 36.1062 126.578 35.7233 125.486 35.3404C124.493 34.9923 123.599 34.679 123.217 33.5416C123.058 33.04 122.334 32.5629 121.802 32.4881C119.647 31.9557 117.358 31.4878 115.203 30.9554C114.473 30.8111 113.743 30.6667 113.048 30.423C112.254 30.1446 110.853 30.3227 110.973 29.0266C111.063 27.4971 112.493 27.5524 113.556 27.7019C116.58 27.9814 119.604 28.261 122.559 28.7391C130.792 30.064 139.328 31.1606 147.575 33.7171C149.894 34.4184 152.143 35.3183 154.393 36.2182C157.104 37.3915 157.709 39.1647 156.734 41.9452C156.107 43.7327 155.089 45.0482 153.608 46.0903C150.951 47.9464 148.392 49.8372 145.705 51.4598C136.57 56.8436 127.37 62.0933 118.235 67.4771C117.395 67.9634 116.655 68.4845 115.612 69.2339Z" fill="#55BBDA"/>
<path d="M87.1384 74.3787C94.81 76.5984 102.482 78.8181 110.049 81.0012C112.594 81.776 115.102 82.6552 117.647 83.43C119.215 83.9795 120.568 84.806 120.891 86.5622C121.178 88.423 120.315 89.8808 118.793 90.8732C117.517 91.8343 116.069 92.6176 114.658 93.2963C82.245 110.1 50.1403 127.364 18.9547 146.358C17.0465 147.45 15.1382 148.541 13.1255 149.596C11.7819 150.416 10.3391 150.849 8.88673 149.636C7.53883 148.459 7.59704 146.954 8.10994 145.491C9.49671 141.869 10.988 138.284 12.5838 134.736C15.8066 127.886 19.1706 120.967 22.3935 114.117C26.0139 106.467 29.3887 98.8482 33.1136 91.2348C36.9485 83.3079 41.0603 75.5954 45.0675 67.8463C46.8723 64.3715 48.5726 60.86 50.4507 57.1762C49.3011 56.7732 48.2559 56.4068 47.3153 56.0771C44.1433 55.0826 40.83 54.1559 37.6946 53.0568C33.8276 51.7013 33.2695 49.2759 35.9783 46.2353C37.6883 44.3702 39.5028 42.5418 41.4218 40.75C43.9787 38.4776 46.7446 36.2785 49.3694 34.1473C57.1391 27.7171 65.0134 21.3235 72.6787 14.8566C75.4446 12.6576 78.0111 12.0316 81.1832 13.0262C86.2731 14.5757 91.3997 16.0206 96.4897 17.5701C108.065 21.0409 119.745 24.5482 131.283 28.1235C134.351 29.0814 137.382 30.1439 140.308 31.1697C141.353 31.536 142.294 31.8657 143.266 32.4411C146.636 34.2093 147.225 36.8804 144.59 39.7119C143.413 41.0598 141.996 42.0888 140.543 43.2223C130.944 50.1848 120.66 56.0859 110.309 61.8459C103.491 65.5588 96.4339 68.9527 89.4442 72.4877C88.5973 72.895 87.7504 73.3023 86.9714 73.8507C87.0393 73.9919 87.1072 74.133 87.1384 74.3787Z" fill="#FBE8DE"/>
<path d="M50.6599 57.2495C49.4058 56.8098 48.4651 56.4801 47.42 56.1138C44.2846 55.0147 40.9713 54.088 37.8359 52.9889C34.1779 51.7067 33.5153 49.2446 36.083 46.2719C37.6518 44.4747 39.4297 42.7508 41.312 41.0635C44.0101 38.7233 46.776 36.5242 49.4374 34.2885C57.3483 27.7904 65.2226 21.3968 72.9245 14.8254C75.4447 12.6576 78.1158 12.0682 81.2879 13.0628C86.2733 14.5757 91.2954 15.984 96.2808 17.4969C107.961 21.0042 119.604 24.6161 131.388 28.1601C134.351 29.0814 137.277 30.1072 140.204 31.133C141.04 31.4261 141.876 31.7192 142.675 32.1168C146.919 34.0736 147.57 37.236 144.02 40.3336C141.108 42.9508 137.814 45.3168 134.489 47.4373C121.261 55.7099 107.898 63.7002 93.8201 70.3835C91.5617 71.4696 89.4078 72.5923 86.8671 73.8141C88.0059 74.9174 89.3021 74.9024 90.3473 75.2687C98.9595 77.8182 107.676 80.4042 116.288 82.9537C117.02 83.2101 117.788 83.3621 118.588 83.7597C121.3 85.0624 121.957 87.8746 119.787 90.0478C118.579 91.1501 117.094 92.0379 115.646 92.8212C104.275 98.8107 92.9047 104.8 81.534 110.79C61.4745 121.479 41.6865 132.733 22.1701 144.551C19.4828 146.191 16.6911 147.794 13.9359 149.293C13.3347 149.669 12.6289 150.008 11.9965 150.139C9.78009 150.77 7.9775 149.552 8.08313 147.241C8.20922 145.877 8.58097 144.482 9.16175 143.16C12.9341 134.742 16.811 126.36 20.6513 118.083C24.9258 108.902 29.0591 99.7888 33.5426 90.681C37.3042 82.9631 41.3793 75.3552 45.3133 67.8151C47.1182 64.3403 48.8185 60.8288 50.6599 57.2495ZM15.7688 141.721C15.9412 141.898 16.1136 142.076 16.3227 142.149C47.2314 122.941 79.4718 105.959 111.655 88.1363C109.46 87.3669 107.825 86.6762 106.116 86.1946C97.8851 83.8962 89.7222 81.7389 81.4914 79.4405C80.6187 79.252 79.7826 78.9589 78.9831 78.5613C75.8897 77.0075 75.5148 74.0595 78.1083 71.6827C79.2795 70.685 80.7277 69.9017 82.1758 69.1184C90.5091 64.7634 99.046 60.8318 107.243 56.1945C117.208 50.5336 126.76 44.376 136.484 38.3962C137.227 37.9523 137.938 37.2627 139.177 36.4062C136.564 35.4903 134.615 34.6897 132.592 34.0981C115.3 28.8581 98.0079 23.618 80.7523 18.2735C79.2524 17.8651 78.4055 18.2723 77.4121 19.0977C69.6423 25.5279 61.8725 31.9581 54.1028 38.3884C51.1224 40.8643 48.1421 43.3403 45.1618 45.8163C44.4873 46.4014 43.7761 47.0909 42.8506 48.0574C44.1047 48.497 45.0454 48.8268 45.8815 49.1198C48.949 50.0778 52.0532 50.9312 54.943 52.0615C57.6237 53.1185 58.2605 54.9847 56.9944 57.5922C55.0064 61.5896 52.8772 65.6549 50.7847 69.6156C46.4165 78.0597 41.9804 86.3626 37.8212 94.88C31.4542 108.022 25.3328 121.132 19.1436 134.102C18.0187 136.641 16.8938 139.181 15.7688 141.721Z" fill="black"/>
</svg>
