<svg xmlns="http://www.w3.org/2000/svg" xmlns:xlink="http://www.w3.org/1999/xlink" viewBox="0 0 837.86 1142.89"><defs><style>.cls-1,.cls-13,.cls-15,.cls-4,.cls-5,.cls-8{fill:none;}.cls-10,.cls-2{fill:#00e9e8;}.cls-3{fill:url(#linear-gradient);}.cls-10,.cls-13,.cls-14,.cls-15,.cls-4,.cls-5,.cls-8,.cls-9{stroke:#112550;stroke-miterlimit:10;}.cls-4,.cls-5{stroke-linecap:round;}.cls-4{stroke-width:7px;}.cls-5{stroke-width:10px;}.cls-6{fill:#112550;}.cls-7{fill:#ffcb00;}.cls-8{stroke-width:4px;}.cls-10,.cls-13,.cls-9{stroke-width:2px;}.cls-9{fill:url(#linear-gradient-2);}.cls-11{fill:#ff5728;}.cls-12,.cls-14{fill:#f674d6;}.cls-14{stroke-width:3px;}.cls-15{stroke-width:9px;}.cls-16{fill:url(#linear-gradient-3);}.cls-17{fill:url(#linear-gradient-4);}.cls-18{fill:#00b6af;}.cls-19{fill:#11294f;}.cls-20{fill:url(#linear-gradient-5);}</style><linearGradient id="linear-gradient" x1="18.93" y1="798.77" x2="440.43" y2="798.77" gradientUnits="userSpaceOnUse"><stop offset="0" stop-color="#f674d6"/><stop offset="0.43" stop-color="#f89896"/><stop offset="0.81" stop-color="#fab563"/><stop offset="1" stop-color="#fbc04f"/></linearGradient><linearGradient id="linear-gradient-2" x1="303.34" y1="290.46" x2="593.77" y2="290.46" gradientTransform="translate(88.83 -113.45) rotate(17.16)" xlink:href="#linear-gradient"/><linearGradient id="linear-gradient-3" x1="636.22" y1="484.09" x2="555.61" y2="388.03" gradientUnits="userSpaceOnUse"><stop offset="0" stop-color="#f674d6"/><stop offset="0.32" stop-color="#a29cdc"/><stop offset="0.79" stop-color="#2ed3e5"/><stop offset="1" stop-color="#00e9e8"/></linearGradient><linearGradient id="linear-gradient-4" x1="586.02" y1="371.67" x2="679.66" y2="371.67" xlink:href="#linear-gradient"/><linearGradient id="linear-gradient-5" x1="310.2" y1="246.67" x2="375.14" y2="192.18" gradientTransform="matrix(1, -0.01, 0.01, 1, 1.52, -16.51)" gradientUnits="userSpaceOnUse"><stop offset="0" stop-color="#f674d6"/><stop offset="0.1" stop-color="#f077d6"/><stop offset="0.23" stop-color="#e07ed8"/><stop offset="0.37" stop-color="#c58bda"/><stop offset="0.52" stop-color="#a09ddc"/><stop offset="0.69" stop-color="#70b4e0"/><stop offset="0.86" stop-color="#36cfe4"/><stop offset="1" stop-color="#00e9e8"/></linearGradient></defs><g id="Layer_2" data-name="Layer 2"><g id="Layer_1-2" data-name="Layer 1"><rect class="cls-1" width="837.86" height="1142.89"/><path class="cls-2" d="M569.65,313.59c6.54,3.14,89.68,42,87.49,46.12-17.57,32.9-35.94,75.26-65.86,98.61-22.16,17.29-50.77,24.54-78.84,26s-56.09-2.54-84-5.42c-12.39-1.28-24.88-2.36-37.3-1.4-41.17,3.18-79.58,30.48-96.12,68.31-18.19-21.6-37.78-42.45-59.3-60.72,11-19.74,22.24-39.66,37.45-56.4s35-30.25,57.4-33.66c14.94-2.28,30.14,0,45.11,2,39.45,5.33,80.93,8.57,117.87-6.25,33.33-13.37,60.07-40.92,75.44-73.37C570,315.15,568.14,315.56,569.65,313.59Z"/><path class="cls-3" d="M352.9,682.68c6.54,3.14,89.68,42,87.49,46.12-17.57,32.91-35.94,75.26-65.86,98.61-22.16,17.29-50.77,24.54-78.83,26s-56.1-2.53-84-5.42c-12.39-1.28-24.88-2.35-37.3-1.39-41.17,3.17-79.58,30.47-96.12,68.3C60,893.27,40.45,872.42,18.93,854.14c11.05-19.73,22.24-39.66,37.45-56.4s35-30.25,57.4-33.66c14.94-2.28,30.14,0,45.11,2,39.45,5.33,80.93,8.56,117.87-6.25,33.33-13.37,60.07-40.92,75.44-73.38C353.27,684.24,351.39,684.66,352.9,682.68Z"/><path class="cls-4" d="M331.43,866.86a21.94,21.94,0,0,0,26.87-25.32"/><path class="cls-4" d="M333,850.48a29.36,29.36,0,0,0-24.61,23.68"/><path class="cls-4" d="M325.58,906.28c-2.15-10.77,5-22.58,15.58-25.63"/><path class="cls-4" d="M346.25,893c3.37-3.25,7-6.29,9.88-9.94s5.14-8.08,5.21-12.76"/><path class="cls-4" d="M335.16,836A19.87,19.87,0,0,1,345,813.77"/><path class="cls-4" d="M358,824.82a34.16,34.16,0,0,0,22.53-28.56"/><path class="cls-4" d="M388.72,830.79c-5,2.27-8.67,6.89-10.65,12s-2.44,10.71-2.29,16.2"/><path class="cls-4" d="M340.58,921.38a32.65,32.65,0,0,0,23.31-26"/><path class="cls-4" d="M308.5,900.91c-3.26,3.24-4.61,8.06-4.44,12.66s1.68,9,3.47,13.28a105.11,105.11,0,0,0,5.57,11.26"/><path class="cls-4" d="M325,963.38a51.13,51.13,0,0,1,26.46-26.09"/><path class="cls-4" d="M374.38,916.62a29.22,29.22,0,0,0,11.81-25.54"/><path class="cls-4" d="M312.79,826.24a43.2,43.2,0,0,1,4.74-33.94"/><path class="cls-4" d="M373.29,940.63a48.09,48.09,0,0,0-2.21,32.18"/><path class="cls-4" d="M388.26,952.79a25.12,25.12,0,0,0,5.91-6.91c6.05-10.19,5.69-22.8,5.15-34.64"/><path class="cls-4" d="M418,914.49c-2.9-4-3.21-9.34-3.28-14.32-.09-6.9.17-14.18,3.77-20.06,2.07-3.39,5.1-6.06,8.07-8.67"/><path class="cls-4" d="M430.41,896.88c4.46-3.39,9-6.92,11.81-11.77,2.36-4.11,3.26-8.89,3.73-13.6a84.83,84.83,0,0,0-1.49-26.16"/><path class="cls-4" d="M302.3,959a33.58,33.58,0,0,0-8.25,31.72"/><path class="cls-4" d="M321.74,989.92a61.2,61.2,0,0,0,23-36.79"/><path class="cls-4" d="M286,957.48a50.84,50.84,0,0,0,5.48-29.9"/><path class="cls-4" d="M295.28,882.79a39.66,39.66,0,0,0-7.36,29"/><path class="cls-4" d="M279.51,871.74a39.07,39.07,0,0,0,22.59-24.22"/><path class="cls-4" d="M284,833.85c3.29-4.32,4-10,4.29-15.45a140.72,140.72,0,0,0-.92-24.88"/><path class="cls-4" d="M415.25,945.51a37.82,37.82,0,0,0-13.9,25.67"/><path class="cls-4" d="M346.07,994.78a38.56,38.56,0,0,0,24.57-10.51"/><path class="cls-4" d="M297.6,1050.4a51.76,51.76,0,0,1,9.41-38.86"/><path class="cls-4" d="M271.59,987.29a44,44,0,0,1-6.29,25.59"/><path class="cls-5" d="M241.66,1120c7-8,26-40,32-47"/><path class="cls-4" d="M434.08,943.92c-.73-10.87-1.27-22.6,4.63-31.77"/><path class="cls-4" d="M461.69,871a47.69,47.69,0,0,0,17.09-31.14"/><path class="cls-4" d="M458.42,830.55a45.16,45.16,0,0,1,4-33.92"/><path class="cls-4" d="M264.57,813.05c-1.45,3.56-1.63,7.5-1.79,11.34-.43,10.12-.52,21.29,6,29"/><path class="cls-4" d="M272.44,930.34a36.69,36.69,0,0,1-1.34-35.09"/><path class="cls-4" d="M317.74,1030.63c4.93-2.79,8.2-7.91,9.92-13.31s2.08-11.12,2.42-16.77"/><path class="cls-4" d="M261.46,1050.79c8.86-10.38,18-21.2,21.66-34.34"/><path class="cls-6" d="M569.65,263.59c6.54,3.14,89.68,42,87.49,46.12-17.57,32.9-35.94,75.26-65.86,98.61-22.16,17.29-50.77,24.54-78.84,26s-56.09-2.54-84-5.42c-12.39-1.28-24.88-2.36-37.3-1.4-41.17,3.18-79.58,30.48-96.12,68.31-18.19-21.6-37.78-42.45-59.3-60.72,11-19.74,22.24-39.66,37.45-56.4s35-30.25,57.4-33.66c14.94-2.28,30.14,0,45.11,2,39.45,5.33,80.93,8.57,117.87-6.25,33.33-13.37,60.07-40.92,75.44-73.37C570,265.15,568.14,265.56,569.65,263.59Z"/><path class="cls-6" d="M346.83,274.55c1.25-9.75,4.56-26.89,2.91-37.16-.16-1.74-.4-3.53-.73-5.43a33.42,33.42,0,0,0-6.64-14.84A31.13,31.13,0,0,0,332,207c-7.88-5.31-17.59-6.5-27.43-6.27-23,.55-49.51,6.63-71.14,14.34-19.12,6.8-34,21.19-45.09,38.09-11.24,17.18-18.38,36.59-24.1,56.19-5.29,18.09-10.6,35.8-16.86,53.64l-.16.46c-2.1,6-4.18,12.06-4.73,18.39-1.66,19.06,17.25,38.54,28.59,52.13,12.44,14.91,26.11,28.54,39.65,42.42,12.66,13,24.26,26.39,38.54,37.75,4.74,3.77,9.69,7.4,15.28,9.72,9.58,4,20.32,3.79,30.65,2.94,16.89-1.39,34.15-4.66,48.36-13.9,18.5-12,23.89-31.81,25-52.28C375.79,416.64,340.4,324.25,346.83,274.55Z"/><path class="cls-7" d="M327.84,305.92c1-7.38,3.46-20.37,2.21-28.15-.12-1.32-.31-2.67-.56-4.12a25.37,25.37,0,0,0-5-11.24,23.59,23.59,0,0,0-7.89-7.68c-6-4-13.33-4.93-20.78-4.75-17.39.41-37.5,5-53.89,10.86-14.49,5.15-25.78,16.05-34.16,28.86-8.51,13-13.92,27.71-18.26,42.56-4,13.7-8,27.12-12.77,40.63l-.12.35c-1.59,4.54-3.16,9.14-3.58,13.93-1.26,14.44,13.06,29.2,21.66,39.5,9.42,11.29,19.77,21.62,30,32.13,9.59,9.82,18.38,20,29.2,28.6a49.86,49.86,0,0,0,11.57,7.36c7.26,3,15.4,2.87,23.22,2.22,12.8-1.05,25.87-3.52,36.63-10.53,14-9.11,18.1-24.09,18.93-39.6C349.78,413.56,323,343.57,327.84,305.92Z"/><path class="cls-7" d="M563.65,238.59c6.54,3.14,89.68,42,87.49,46.12-17.57,32.9-35.94,75.26-65.86,98.61-22.16,17.29-50.77,24.54-78.84,26s-56.09-2.54-84-5.42c-12.39-1.28-24.88-2.36-37.3-1.4-41.17,3.18-79.58,30.48-96.12,68.31-18.19-21.6-37.78-42.45-59.3-60.72,11-19.74,22.24-39.66,37.45-56.4s35-30.25,57.4-33.66c14.94-2.28,30.14,0,45.11,2,39.45,5.33,80.93,8.57,117.87-6.25,33.33-13.37,60.07-40.92,75.44-73.37C564,240.15,562.14,240.56,563.65,238.59Z"/><path class="cls-8" d="M236.78,418.45q26-26.2,53.6-50.81c12.8-11.42,26.42-22.9,43-27.46,10.31-2.84,21.17-2.81,31.86-2.47,18.82.6,37.62,2.12,56.29,4.53,26.4,3.41,54.23,8.47,78.87-1.62,22.39-9.16,38.17-29.34,51.45-49.56a524.49,524.49,0,0,0,27.26-46.55"/><path class="cls-8" d="M244.74,427.54a521.37,521.37,0,0,1,54.11-51.92c12.68-10.53,26.5-20.75,42.69-23.84,9.12-1.74,18.5-1.1,27.76-.46l97.94,6.78c21,1.45,43.19,2.71,62.17-6.49,13.48-6.54,24.08-17.83,33.11-29.79a219.17,219.17,0,0,0,36.64-75.13"/><path class="cls-8" d="M251.93,441.23a682.65,682.65,0,0,1,53.19-44.49c12.51-9.41,25.55-18.51,40.32-23.71,15.39-5.41,32-6.34,48.33-5.4C418,369,441.84,374.42,466,376.94s49.39,2,71.58-7.85c19.3-8.57,35-23.68,47.93-40.41A218,218,0,0,0,621,260.08"/><path class="cls-8" d="M271.11,455.63c30.07-29.51,62.47-60.31,103.66-69.14,50.06-10.73,103,13.41,152.73,1.5,27.14-6.48,51-23.41,69.4-44.37s31.78-45.85,43.18-71.31"/><path class="cls-9" d="M520.23,148.73c7.16,1.19,97.85,15.24,96.9,19.79C609.47,205,603.7,250.83,581.5,281.63c-16.43,22.8-41.86,37.76-68.41,47s-54.56,13.27-82.2,18.33c-12.26,2.24-24.54,4.7-36.2,9.1-38.63,14.57-67.87,51.53-73.16,92.48-23.51-15.64-48.14-30.17-73.92-41.69,5.08-22,10.24-44.3,20.16-64.63s25.17-38.85,45.68-48.38c13.7-6.37,28.94-8.43,43.88-10.68,39.36-5.92,80.09-14.43,111.41-39C497,222,515,188.05,520.62,152.59,521,150.13,519.33,151.06,520.23,148.73Z"/><path class="cls-6" d="M335.71,568.76a6.84,6.84,0,0,1-2.34-5c.21-7.66,1.17-15.31,1.29-23,.27-16.37-7.1-29.38-18.42-40.9-2.36,3.22-4.43,6-6.49,8.85l-5.88,8.11a17,17,0,0,1,.82-9c3.94-9.68,3.08-17.71-4.54-25.94-6.83-7.37-11.86-16.34-20.38-22.29A133.56,133.56,0,0,1,246.28,426a61.57,61.57,0,0,0-16-15.45c-7.56-5.09-15.46-9.47-21.2-19.29-3.57,10.63-6.63,19.75-9.7,28.87.4-5.88.46-12,2.87-17,7.19-15-.4-25.07-9.58-35.47-8.63-9.79-18.75-17.5-29.95-24.7l-11.46,19.41c.93-7,2.94-13.6,4.61-20.28.39-1.55.22-4.19-.76-5-5.58-4.42-11.48-8.42-17.74-12.9l-7.83,19.47-.74-.23c1.2-7.51,2.39-15,3.54-22.24-5.07-2.69-10.2-4.5-14.21-7.71-9.42-7.56-19.77-5.82-31.62-4.54,13.4,10.16,22.93,33,31,44.49A866.84,866.84,0,0,0,227.56,482.27a859.15,859.15,0,0,0,73.73,63.29c10,7.67,21,16.51,24.9,28,1.91-.57,3.36-.12,5.22,1.28,10,7.58,20.14,15.06,30.39,22.35,1.36,1,3.65.61,5.51.87-.1-2.45.36-5.11-.49-7.26-.59-1.48-3-2.23-4.57-3.33C353.37,581.28,344.43,575.16,335.71,568.76Z"/><path class="cls-6" d="M301.29,545.56a859.15,859.15,0,0,1-73.73-63.29A866.84,866.84,0,0,1,117.45,353.44c-8-11.53-17.58-34.33-31-44.49h-.15c-.53,8.39-.83,16.66-1.66,24.88-.45,4.51,1.69,6.1,5.48,7.24,2.52.76,4.77,2.38,7.15,3.62L96.63,347l-11.54-.3c1.47,7.07,2.14,14.44,4.62,21.15,4,10.79,9.13,21.16,13.89,31.66,3.64,8,4,8.17,12.68,5.73,4.68-1.32,9.35-2.67,14-4,.22.49.45,1,.67,1.46-6,5.2-12,10.4-17.56,15.19,13,20.54,25.13,41.16,38.73,60.79A113.12,113.12,0,0,0,176,503.42c12.16,9.35,23.68,19,32.24,31.8.15.21.61.21,1.75.59l22.58-22.62.39.14c-5.23,8.23-10.29,16.56-15.75,24.63-2.93,4.31-2,7,2,9.9,12.9,9.27,25.48,19,38.52,28.07,14.8,10.29,31.12,11.84,48.05,6.34a129.3,129.3,0,0,0,18.78-8,9.55,9.55,0,0,1,1.68-.68C322.31,562.07,311.33,553.23,301.29,545.56Z"/><path class="cls-6" d="M632.89,31.74a6.84,6.84,0,0,1-5,2.35c-7.67-.18-15.32-1.11-23-1.21-16.37-.21-29.35,7.21-40.83,18.57L573,57.91l8.13,5.85a17,17,0,0,1-9-.79c-9.69-3.9-17.72-3-25.92,4.64-7.35,6.85-16.3,11.91-22.22,20.46a133.67,133.67,0,0,1-33.44,33.61,61.57,61.57,0,0,0-15.4,16.09c-5.06,7.59-9.41,15.5-19.21,21.28l28.91,9.59c-5.89-.37-12-.41-17.06-2.81-15-7.13-25.06.49-35.43,9.71-9.76,8.67-17.43,18.82-24.6,30.05L427.16,217c-7-.9-13.61-2.89-20.3-4.54-1.55-.38-4.19-.2-5,.78-4.39,5.6-8.37,11.51-12.83,17.79l19.5,7.76-.23.74L386.08,236c-2.67,5.08-4.46,10.22-7.66,14.24-7.53,9.45-5.75,19.79-4.43,31.64,10.11-13.44,32.88-23.06,44.39-31.15A866.88,866.88,0,0,0,546.8,140.2a860.65,860.65,0,0,0,63-74c7.63-10.06,16.43-21.08,27.91-25-.58-1.9-.14-3.35,1.26-5.22q11.32-15.09,22.24-30.47c1-1.36.6-3.66.85-5.52-2.45.11-5.11-.34-7.26.52-1.48.59-2.22,3-3.31,4.58C645.35,14,639.26,23,632.89,31.74Z"/><path class="cls-6" d="M609.83,66.23a860.65,860.65,0,0,1-63,74A866.88,866.88,0,0,1,418.38,250.77c-11.51,8.09-34.28,17.71-44.39,31.15l0,.14c8.39.5,16.66.78,24.88,1.57,4.51.44,6.09-1.71,7.22-5.5.76-2.52,2.37-4.79,3.6-7.16l2.26.65c-.07,3.44-.15,6.89-.25,11.54,7.06-1.5,14.44-2.19,21.13-4.7,10.78-4,21.13-9.21,31.61-14,8-3.67,8.16-4.07,5.68-12.7-1.33-4.68-2.7-9.34-4.05-14l1.47-.67,15.25,17.49c20.48-13,41.07-25.27,60.65-38.94a113.34,113.34,0,0,0,24.68-23.92c9.31-12.19,18.87-23.76,31.68-32.36.21-.15.21-.61.58-1.75l-22.7-22.49c0-.13.1-.26.14-.4,8.24,5.2,16.6,10.23,24.68,15.66,4.33,2.92,7.05,2,9.9-2,9.22-12.94,18.91-25.55,27.93-38.63,10.23-14.83,11.73-31.16,6.17-48.06a130.05,130.05,0,0,0-8.09-18.76,8.92,8.92,0,0,1-.69-1.68C626.26,45.15,617.46,56.17,609.83,66.23Z"/><path class="cls-6" d="M487.3,210.73c1-2.36,1.77-4.37,3.14-7.76-5.79,4.13-9.4.16-13.46-1.28-9.1-3.21-18.28-6.45-24.74-14.16-2.16-2.59-3.62-5.76-5.64-9.06,27,2.08,52.63,1.79,78.29.86,55.27-2,108.17-13.35,157.93-38a317.83,317.83,0,0,0,94-70.9c1.14-1.25,2.34-2.46,3.69-3.87l4.14,4.21L757.09,97.93c5.79,24.64,2.22,47-12.88,67.59l-4.44-5.39-.78.21c.42,2.78.83,5.56,1.26,8.34.65,4.24-.46,7.25-4.36,10-11.4,7.93-22.56,16.06-35.35,21.88-6.45,2.93-11.93,8-17.44,11.83l-6.64-13.95-.93.24-2.7,18.3c-16.81,1.69-34.42,1.95-50,13-1.61-5.08-2.88-9.06-4.42-13.93a19.52,19.52,0,0,0-.88,2.56c-1.6,9.31-4.27,12-13.76,12-5.77,0-11.53-1.29-17.3-2a90.65,90.65,0,0,0-9.83-1,63.23,63.23,0,0,0-10.37.82c-12.84,2-25.21,1.78-36.4-7.53l1.34-9.16-1-.36c-1.73,3.42-3.29,6.94-5.31,10.18-.7,1.13-2.69,2.42-3.81,2.2A96.28,96.28,0,0,1,487.3,210.73Z"/><path class="cls-2" d="M656.94,656.64c14.64-8.48,30.54-14.72,44.74-23.92A56.29,56.29,0,0,0,714.85,621l1.26.46c.38,4.65.81,9.75,1.22,14.86a55.55,55.55,0,0,1,.32,5.62c-.22,9.88-3,12.77-12.9,13.68-6.9.64-13.83,1.18-20.71,2.32-3.54.59-8.25,1.78-8,6.3.07,1.35,5.4,3.07,8.25,2.69,10.37-1.41,20.71-3.63,31.62-5.65-1.33,5-2.64,10.43-4.3,15.83-1.44,4.64-4.95,7.92-9.62,8.33a100.91,100.91,0,0,1-18-.27c-5.18-.48-10.1-2.43-15.29-2.64-4-.16-8.29,1.06-12.31,2.29-1.68.51-3,2.64-4.51,4,1.37,1.4,2.46,3.68,4.17,4.06,8.69,2,17.5,3.59,26.36,5,10,1.61,19.78-.67,30-6-2.26,10.9-4.35,21-10.45,30.13-4.22,6.29-10.45,9.25-17.4,8.28a96,96,0,0,1-20.84-5c-9.06-3.49-17.56-8.14-26.3-12.28a42.92,42.92,0,0,0-5-2.27c-5.19-1.66-9.9,1.85-8.41,6.91s3.87,10.55,7.61,14.07c13.22,12.42,30.74,15.2,49.27,15l6.22-.09c.12,0,.23.17.37.29a117.73,117.73,0,0,1-25.55,31.43c-6.51,5.72-12.6,6.24-19.1,3.27-13.07-6-24-14.46-32.07-26.24a132.36,132.36,0,0,0-8.52-11.76,11,11,0,0,0-6.18-3.5c-6-1-10.85,4.34-8.21,9.52a104.55,104.55,0,0,0,13.68,21.2c10.28,11.84,24.18,18.66,39.91,22.32,1.68.39,3.33.84,5,1.3a4.68,4.68,0,0,1,1,.62c-6.38,4.1-12.5,8.45-19,12.1-12.08,6.82-24,5.14-32-4.9-4.12-5.16-6.68-11.55-10.55-17a71.38,71.38,0,0,0-11.37-12.73c-3.61-3.06-7.22-1-6.6,3.82.78,6.2,2,12.79,5,17.9,5.24,8.78,12.06,16.55,18.36,24.92-6.28,2.39-13.05,4.28-20.08,2.63-23.1-5.4-40.37-29.61-37.74-53.55.55-5,2.41-10,4-14.91,1.43-4.35,1.15-6.83-1.47-8,12.64-4.46,23.57-11.55,34.57-19.79C600,703.58,624.8,675.27,656.94,656.64Z"/><path class="cls-2" d="M516.67,744.38C495.23,742.13,484,730.29,482.61,709c-1-16,3.48-34.44,10.63-44.85h0c3.49,10.11,7,20.79,10.88,31.3,2.26,6.12,5.45,7.94,9.06,6.14,3.14-1.57,2.51-4.38-.55-10.73-4-8.32-8-16.77-10.61-25.69-2.67-9.25-1.49-18.7,7.59-26.21,5.39-4.46,10.43-9.47,16.23-13.25,3.83-2.5,8.74-3.24,12.9-4.68h0c-3,11.68-6.45,22.56-8.29,33.54-1.36,8.1-.77,16.35-.64,24.49a13.64,13.64,0,0,0,2.26,7.38c1.3,1.86,3.89,4,5.9,3.8,2.34-.24,5.85-2.53,6.72-4.61A27.27,27.27,0,0,0,546.51,674c-.44-8.91-2-17.68-2.22-26.62a123,123,0,0,1,1.56-24.11c2-11.51,9.24-18.72,20.9-21.24,8-1.73,16.19-2.17,24.73-3.24h0c-10.33,19-17.21,37.69-19,57.46a14,14,0,0,0,1.17,7.17c1.76,3.55,6.1,3.49,7.86-.34a37.54,37.54,0,0,0,2.87-12.41c1.46-16.55,6.39-32,17.25-46,3.79-4.87,8.8-7.4,14.57-7.2,8.38.3,16.69,1.15,24.48,1.72-4.1,6.18-8.08,11.82-11.68,17.66-4.51,7.31-8.92,14.7-13,22.23-1.82,3.38-3.41,7.23-3.66,10.83-.14,2.18,2,5.45,4,6.09s6-.57,7.67-2.3a31.12,31.12,0,0,0,6.16-10c2.56-6.35,4-13.06,6.79-19.34a87.17,87.17,0,0,1,9.57-17.05A14.33,14.33,0,0,1,661,601.83c5.34.95,10.61,2.15,17.16,3.5h0c-13.41,9.42-18.4,22.49-24.77,34.66-1,1.87-.13,4.54-.12,6.85h0c2.34-.72,5.53-.76,6.85-2.3a52.85,52.85,0,0,0,8.47-12.67c3.43-7.76,8.62-14.11,14.88-19.75,1-.93,3.54-1.1,4.93-.63,8.92,3.06,17.73,6.35,26.41,9.52h0a56.29,56.29,0,0,1-13.17,11.71c-14.2,9.2-30.1,15.44-44.74,23.92C624.8,675.27,600,703.58,570.5,725.69c-11,8.21-21.87,15.29-34.47,19.76a.28.28,0,0,1-.2,0,11.72,11.72,0,0,0-3.87-.75C526.89,744.39,521.67,744.91,516.67,744.38Z"/><path class="cls-6" d="M702,427.39c-7.94,14.94-18.14,28.64-25.32,44a56.23,56.23,0,0,0-5,16.91l-1.31.27c-2.79-3.74-5.85-7.84-8.9-12-1.11-1.51-2.28-3-3.24-4.6-5-8.5-4.19-12.44,3.71-18.43,5.52-4.2,11.11-8.32,16.34-12.93,2.7-2.38,6.07-5.87,3.5-9.6-.76-1.11-6.2.25-8.41,2.08-8.06,6.68-15.66,14-23.85,21.51-1.5-4.91-3.28-10.24-4.72-15.7-1.24-4.7,0-9.34,3.75-12.15a100.74,100.74,0,0,1,15.42-9.3c4.65-2.33,9.85-3.28,14.37-5.84,3.47-2,6.47-5.28,9.23-8.45,1.16-1.33,1.16-3.84,1.69-5.82-1.9-.46-4-1.81-5.68-1.23-8.41,2.94-16.75,6.21-25,9.69-9.34,3.92-16.43,11-22.32,20.94-3.85-10.45-7.43-20.15-7.07-31.11.25-7.56,4-13.38,10.38-16.22A96.12,96.12,0,0,1,660,372.66c9.53-1.83,19.2-2.38,28.81-3.49a42,42,0,0,0,5.48-.74c5.28-1.34,7.42-6.8,3.48-10.3s-8.87-6.92-13.9-7.92c-17.79-3.55-34.13,3.35-49.75,13.3l-5.24,3.38c-.1.06-.28,0-.47-.05a117.75,117.75,0,0,1,5.06-40.19c2.51-8.3,7.39-12,14.48-12.89,14.25-1.84,28-.42,41.1,5.31a131.17,131.17,0,0,0,13.45,5.48,11,11,0,0,0,7.1-.3c5.61-2.37,6.91-9.43,1.94-12.42-7.22-4.34-14.86-8.3-22.84-10.76-15-4.61-30.38-3.05-45.67,2.17-1.63.55-3.28,1.05-4.92,1.54a4.89,4.89,0,0,1-1.15,0c3.24-6.86,6.14-13.79,9.7-20.32,6.64-12.17,17.63-17,29.77-12.77,6.23,2.19,11.78,6.27,17.92,8.8a70.87,70.87,0,0,0,16.38,4.79c4.68.69,6.67-2.95,3.58-6.73-3.94-4.85-8.43-9.81-13.73-12.54-9.09-4.68-19-7.66-28.76-11.44,4.07-5.34,8.82-10.53,15.65-12.85,22.47-7.63,49.93,3.78,60.35,25.49,2.17,4.52,3.24,9.75,4.47,14.78,1.1,4.44,2.64,6.4,5.49,6-8.37,10.48-13.89,22.28-18.87,35.09C725.49,357.46,719.44,394.58,702,427.39Z"/><path class="cls-6" d="M774.66,278.73c19.39-9.43,35.19-5.32,47.64,12.06,9.35,13.07,15.26,31.07,14.7,43.68h0c-8.31-6.74-16.93-14-25.79-20.81-5.15-4-8.82-3.85-10.93-.42-1.84,3,.18,5.05,6.14,8.82,7.81,4.94,15.68,10,22.59,16.19,7.16,6.44,11.16,15.08,7.42,26.26-2.22,6.63-3.84,13.56-6.76,19.83-1.93,4.15-5.7,7.37-8.48,10.8h0c-3.66-11.49-6.46-22.56-10.71-32.85-3.13-7.59-8-14.28-12.41-21.13a13.64,13.64,0,0,0-5.82-5.06c-2.09-.89-5.42-1.34-7-.1-1.85,1.44-3.63,5.23-3.27,7.46a27.47,27.47,0,0,0,4.62,10.82c5.09,7.33,11.07,13.93,16,21.41A123.27,123.27,0,0,1,814,397c4.36,10.85,2.06,20.78-6.5,29.08-5.89,5.71-12.6,10.41-19.27,15.83h0c-1.3-21.62-5.32-41.09-14.24-58.82a13.84,13.84,0,0,0-4.78-5.47c-3.37-2.08-7,.26-6.5,4.45a38,38,0,0,0,4.13,12.05c7.52,14.81,11.53,30.57,9.68,48.13-.65,6.13-3.56,10.93-8.56,13.81-7.28,4.18-14.77,7.85-21.69,11.49.22-7.42.6-14.31.57-21.17,0-8.59-.2-17.18-.75-25.71-.25-3.84-.93-7.95-2.63-11.13-1-1.93-4.57-3.57-6.61-3.06s-4.76,3.64-5.28,6a30.82,30.82,0,0,0,.07,11.76c1.19,6.75,3.48,13.23,4.47,20a88,88,0,0,1,.9,19.54,14.36,14.36,0,0,1-9.44,12.3c-5,2-10.14,3.78-16.41,6.1h0c6.4-15.08,3.72-28.82,2.69-42.52-.16-2.11-2.3-3.92-3.52-5.87h0c-1.61,1.85-4.29,3.56-4.61,5.57a53.08,53.08,0,0,0-.48,15.23c1.19,8.41.15,16.54-2.18,24.64-.39,1.33-2.42,2.8-3.85,3.13-9.19,2.13-18.41,4-27.45,5.9h0a56.23,56.23,0,0,1,5-16.91c7.18-15.32,17.38-29,25.32-44,17.42-32.81,23.47-69.93,36.84-104.32,5-12.78,10.47-24.54,18.8-35a.23.23,0,0,1,.17-.1,11.76,11.76,0,0,0,3.69-1.41C766,284.13,770.13,280.93,774.66,278.73Z"/><path class="cls-6" d="M95.31,592.89c-13.29,10.47-28.15,18.9-40.91,30A56.45,56.45,0,0,0,43,636.36l-1.31-.28c-1-4.55-2.19-9.54-3.31-14.53A54.5,54.5,0,0,1,37.29,616c-1.18-9.81,1.19-13.07,10.83-15.37,6.75-1.61,13.53-3.12,20.17-5.23,3.43-1.09,7.93-2.92,7.08-7.38-.25-1.32-5.78-2.27-8.54-1.49-10.07,2.86-20,6.53-30.51,10.07.62-5.1,1.14-10.7,2-16.28.76-4.79,3.77-8.54,8.33-9.6a101.3,101.3,0,0,1,17.86-2.29c5.19-.25,10.34,1,15.51.45,4-.4,8-2.22,11.85-4,1.6-.75,2.62-3,3.9-4.64-1.56-1.19-3-3.28-4.7-3.42-8.89-.7-17.84-1.07-26.81-1.23-10.12-.18-19.48,3.47-28.87,10.15.69-11.12,1.33-21.43,6.08-31.31,3.28-6.82,9-10.64,16-10.65a95.23,95.23,0,0,1,21.35,2c9.46,2.17,18.53,5.57,27.77,8.43a41.26,41.26,0,0,0,5.31,1.54c5.37.91,9.54-3.23,7.34-8s-5.32-9.9-9.52-12.85C95,504.5,77.22,504.23,58.9,507c-2,.31-4.09.66-6.14,1-.13,0-.26-.13-.41-.23A117.76,117.76,0,0,1,73.19,473c5.64-6.58,11.59-8,18.45-6,13.79,4.06,25.83,10.92,35.46,21.44A131.11,131.11,0,0,0,137.2,499a11,11,0,0,0,6.61,2.59c6.09.1,10.13-5.83,6.79-10.58A104.89,104.89,0,0,0,134,471.92c-11.84-10.27-26.57-15.05-42.66-16.44-1.71-.15-3.42-.37-5.12-.58a4.57,4.57,0,0,1-1.05-.48c5.74-5,11.18-10.13,17.07-14.67,11-8.46,23-8.48,32.4.33,4.81,4.52,8.25,10.49,12.84,15.28a70.63,70.63,0,0,0,13.06,11c4,2.53,7.29,0,6-4.71-1.65-6-3.76-12.38-7.51-17-6.42-7.95-14.28-14.67-21.7-22.08,5.89-3.24,12.32-6.07,19.52-5.44,23.63,2.08,44.15,23.6,44.93,47.68.16,5-1,10.23-1.87,15.32-.8,4.51-.17,6.92,2.59,7.71-11.89,6.21-21.69,14.78-31.42,24.49C145,538.38,124.49,569.91,95.31,592.89Z"/><path class="cls-6" d="M221.75,486.18c21.55-.8,34.35,9.33,38.73,30.26,3.29,15.73,1.43,34.58-4.17,45.9h0c-4.89-9.52-9.86-19.59-15.2-29.44-3.11-5.74-6.52-7.09-9.84-4.8-2.89,2-1.87,4.69,2.06,10.55,5.15,7.66,10.32,15.46,14.14,23.92,4,8.78,4.13,18.3-3.81,27-4.7,5.18-9,10.86-14.18,15.42-3.45,3-8.2,4.45-12.12,6.46h0c1.28-12,3.19-23.25,3.46-34.38.2-8.21-1.56-16.29-2.83-24.33a13.69,13.69,0,0,0-3.28-7c-1.56-1.65-4.42-3.41-6.39-2.92-2.27.56-5.43,3.32-6,5.51a27.45,27.45,0,0,0-.14,11.76c1.7,8.76,4.5,17.22,6,26A123.94,123.94,0,0,1,210,610.24c-.39,11.69-6.5,19.84-17.68,24-7.69,2.85-15.73,4.44-24,6.71h0c7.54-20.31,11.71-39.74,10.71-59.56a13.93,13.93,0,0,0-2.17-6.94c-2.24-3.26-6.53-2.59-7.74,1.45A37.73,37.73,0,0,0,168,588.57c.9,16.59-1.79,32.63-10.57,47.94-3.07,5.36-7.67,8.57-13.4,9.19-8.35.88-16.69,1.22-24.48,1.76,3.19-6.7,6.32-12.85,9.06-19.14,3.43-7.87,6.75-15.8,9.69-23.83,1.32-3.61,2.35-7.65,2.08-11.24-.16-2.19-2.74-5.12-4.81-5.47s-5.83,1.42-7.26,3.37a30.87,30.87,0,0,0-4.68,10.79c-1.64,6.66-2.15,13.5-4,20.11a86.83,86.83,0,0,1-7.06,18.24A14.36,14.36,0,0,1,99,647.74c-5.41-.19-10.8-.63-17.47-1h0c11.94-11.21,15-24.86,19.62-37.81.7-2-.52-4.52-.86-6.79h0c-2.21,1-5.36,1.53-6.46,3.24a52.59,52.59,0,0,0-6.58,13.74,58.48,58.48,0,0,1-11.94,21.66c-.89,1.06-3.35,1.59-4.79,1.31-9.26-1.75-18.45-3.77-27.49-5.68h0A56.45,56.45,0,0,1,54.4,622.9c12.76-11.11,27.62-19.54,40.91-30,29.18-23,49.69-54.51,75.8-80.58,9.7-9.69,19.48-18.23,31.32-24.44a.27.27,0,0,1,.2,0,12,12,0,0,0,3.94.2C211.63,487.62,216.72,486.37,221.75,486.18Z"/><path class="cls-10" d="M435.83,210.22a8.91,8.91,0,0,0,1.06,4.77c1.58,2.36,4.87,2.66,7.7,2.71q17.52.28,35-.47a5.43,5.43,0,0,1,2.27.23,3.65,3.65,0,0,1,2,3.66,10.72,10.72,0,0,1-1.44,4.15c-2.64,5.17-5.44,10.27-8.2,15.38-.4.73-.8,1.64-.37,2.35,8.29-3.74,15.28-9.79,22.61-15.18a68.6,68.6,0,0,1,15.09-8.88,45,45,0,0,1,7.84-2.35c2.34-.47,5.13-.06,6.91-2.05s1.46-5.8,1.27-8.43c-.26-3.73-.67-7.46-1.08-11.18-.81-7.28-1.77-14.57-2-21.9-.15-4.2-.12-8.43-1-12.54-.67-3.23-2.11-6.63-5-8.17a13.29,13.29,0,0,0-5.34-1.14,214.83,214.83,0,0,0-23.53.28c-13,.63-26.08,1.26-39.05,2.74a32.38,32.38,0,0,0-8.64,1.83,11.85,11.85,0,0,0-6.49,5.73c-1.17,2.55-1.06,5.47-.94,8.26C435.06,183.42,435.39,196.82,435.83,210.22Z"/><path class="cls-6" d="M454.2,179.67a5.27,5.27,0,1,0,5.67,3.19,5.44,5.44,0,0,0-7.28-2.57"/><path class="cls-6" d="M476.28,178.68c-1.9-.74-3.91,1.19-4.28,3.18a6.12,6.12,0,0,0,5.28,7,5.72,5.72,0,0,0,5.86-6.28c-.53-3.25-4.7-5.34-7.56-3.71"/><path class="cls-6" d="M504.73,175.77a14,14,0,0,0-6.3.68,6.36,6.36,0,0,0-4.05,4.6,6.22,6.22,0,0,0,2.06,5.38,12.21,12.21,0,0,0,5.31,2.67c1.69.44,3.67.64,5-.44a5.64,5.64,0,0,0,1.5-2.21c1.07-2.49,1.56-5.42.42-7.89s-4.3-4.07-6.7-2.81C504.56,176.05,502.18,175.47,504.73,175.77Z"/><path class="cls-11" d="M442.7,956.6c-3.16,3.43-4,8.47-3.62,13.12s1.7,9.17,2.25,13.81c.31,2.61.38,5.29,1.29,7.75s2.93,4.74,5.53,5a9.45,9.45,0,0,0,5-1.24,44.24,44.24,0,0,0,19.37-18.51,21.37,21.37,0,0,0,2.77-8.11c.58-6.63-5.07-6.67-9.16-3.12l-6.3,5.46c.1-4.82-1.94-15.18-7.33-17h0A9.76,9.76,0,0,0,442.7,956.6Z"/><path class="cls-7" d="M254.73,887.52q6.6,6.19,2.78,18.31c-3.67,11.62-13.18,28.6,6.19,30.23-.89,7.06,8.5,19.82,6.34,26.6-9.94-5-37.29-16.38-39.32-19-4.83-6.34-5-15.87-2.72-23.16l4.78-15.14c1.33-4.23,1.61-7.68.81-10.36a12.4,12.4,0,0,0-5.68-6.87,38.92,38.92,0,0,1,.49-4.05,35.5,35.5,0,0,1,2.77-8.79,40.47,40.47,0,0,1,1.93-3.59,12.44,12.44,0,0,0,8.59-2.36q3.28-2.61,5.29-9l4.77-15.14Q255,835,261.62,831.52c8.92-4.64,40.42,5,49.42,8.15-1.69,6.52-21.7,5.59-22.64,12.27-16-7.11-17.35,11-20.88,22.18Q263.65,886.38,254.73,887.52Z"/><path class="cls-12" d="M273.36,895q6.6,6.21,2.78,18.32c-3.67,11.61-13.18,28.6,6.19,30.23a115.62,115.62,0,0,1-4.57,20.8c-.79,2.48-26.37-10.59-28.4-13.25-4.83-6.33-5-15.86-2.72-23.16l4.78-15.14q2-6.33.81-10.36a12.44,12.44,0,0,0-5.68-6.87c.08-1.24.24-2.59.48-4a35.21,35.21,0,0,1,2.78-8.8,35.86,35.86,0,0,1,1.93-3.59,12.4,12.4,0,0,0,8.59-2.36c2.18-1.74,3.95-4.72,5.28-9l4.78-15.14q3.23-10.23,9.87-13.69c8.91-4.64,21.72-2.57,30.72.6a180.46,180.46,0,0,0-4,19.82c-16-7.1-17.34,11-20.88,22.18Q282.28,893.83,273.36,895Z"/><path class="cls-13" d="M277.76,964.32c-.79,2.48-26.37-10.59-28.4-13.25-4.83-6.33-5-15.86-2.72-23.16l4.78-15.14q2-6.33.81-10.36a12.44,12.44,0,0,0-5.68-6.87c.08-1.24.24-2.59.48-4a35.21,35.21,0,0,1,2.78-8.8,35.86,35.86,0,0,1,1.93-3.59,12.4,12.4,0,0,0,8.59-2.36c2.18-1.74,3.95-4.72,5.28-9l4.78-15.14q3.23-10.23,9.87-13.69c8.91-4.64,21.72-2.57,30.72.6"/><path class="cls-14" d="M562.76,312.76c-15.83,1.74-31.56,3.81-47.42,4.91a6.06,6.06,0,0,0-2.5.53,4.1,4.1,0,0,0-1.72,4.31,12.06,12.06,0,0,0,2.12,4.44c3.58,5.42,7.33,10.72,11,16.06.53.76,1.09,1.72.71,2.57-9.69-3.12-18.22-9-27-14.05a77.05,77.05,0,0,0-17.89-8,50,50,0,0,0-9-1.63c-2.66-.23-5.71.58-7.94-1.41s-2.34-6.27-2.47-9.21c-.17-4.19-.18-8.37-.19-12.56,0-8.19.14-16.42-.48-24.6-.23-2.94-.92-6.2-.63-9.15.25-2.58,1.5-4.37,1.75-6.8h0c.29-2.83,2.55-5.13,5.14-6.29a24.4,24.4,0,0,1,8.32-1.55l142.74-9.7,32-2.17c2.64-.18,5.5-.31,7.73,1.12,3.13,2,3.81,6.22,4.2,9.92,1.64,14.53,3,29,3.62,43.59.1,2.16.18,4.41-.71,6.38-2,4.46-7.8,5.45-12.68,5.84L581.12,311C575,311.47,568.86,312.09,562.76,312.76Z"/><path class="cls-6" d="M507.23,286.85c.55.22,1.11.42,1.67.61a.37.37,0,0,1,.26.18.52.52,0,0,1,0,.42l-2.5,6.39c-.12.3-.27.64-.54.75a1,1,0,0,1-.7,0c-6.78-2.09-13.29-6.28-19.56-10.06l-3-1.8a11.46,11.46,0,0,1-3.21-2.93c-1.11-1.75,20.47-17.54,23.79-17.84.4,2.68,2.16,4.82,3.14,7.31a.91.91,0,0,1,.1.58.85.85,0,0,1-.3.4,35.64,35.64,0,0,1-3.83,2.79l-8.95,6.18C498.06,282,502.62,285,507.23,286.85Z"/><path class="cls-6" d="M606.23,263.49c-.55-.22-1.11-.43-1.67-.61a.5.5,0,0,1-.27-.18.59.59,0,0,1,0-.43l2.5-6.39a1.29,1.29,0,0,1,.54-.75,1,1,0,0,1,.69.05c6.79,2.08,13.3,6.27,19.57,10.05l3,1.81a11.57,11.57,0,0,1,3.21,2.92c1.11,1.75-20.48,17.55-23.79,17.85-.4-2.68-2.16-4.83-3.14-7.31a.92.92,0,0,1-.1-.58.85.85,0,0,1,.3-.4,34.41,34.41,0,0,1,3.83-2.8l9-6.18C615.4,268.31,610.84,265.32,606.23,263.49Z"/><path class="cls-15" d="M527.89,255.06a57.16,57.16,0,0,0,2.63,47.56"/><path class="cls-15" d="M583.51,299c8.11-12.75,12.66-37.8-2.61-47.47"/><path class="cls-6" d="M555.91,282.57c-3.83.75-6.83,5-5.53,8.7s7.21,4.77,9.26,1.46a7.07,7.07,0,0,0,.82-4.1,6.85,6.85,0,0,0-1.52-4.32,3.44,3.44,0,0,0-4.22-.8"/><path class="cls-2" d="M449.55,878.6a48.69,48.69,0,0,0,1.84-68.84l-3.15,3c-1.58,1.49-4.4,5.65-6.6,5.17a20.59,20.59,0,0,0-5.2-.83,4.91,4.91,0,0,0-4.36,2.49,6.94,6.94,0,0,0-.4,3.08c0,1.45.89,3.76.48,5.11-.36,1.17-2.31,2.41-3.18,3.23l-7.17,6.81-15,14.18-26.14,24.77A48.69,48.69,0,0,0,449.55,878.6Z"/><path class="cls-7" d="M414.82,777.34A48.69,48.69,0,0,0,413,846.18s3.17-3.06,3.37-3.2c2.06-1.5,4.83-1.74,7.3-1.65a67.17,67.17,0,0,0,7.62.32,4.32,4.32,0,0,0,2.53-.85,4.91,4.91,0,0,0,1.17-2.09,7.51,7.51,0,0,0-.12-7l-2.5-6.23a7.5,7.5,0,0,1-.74-3c.1-2.48,2.7-4.23,5.18-4.41s4.88.73,7.28,1.37,5.18.86,6.84-.9a6,6,0,0,0,1.23-4.63c-.09-1.14-.67-2.78-.41-3.89s1-1.51,1.85-2.29c2.24-2.09,4.44-4.21,6.66-6.32l11.88-11.26,11.54-10.93A48.69,48.69,0,0,0,414.82,777.34Z"/><path class="cls-13" d="M413,846.25c3.07-3.27,4.64-4,7.12-4.93,2.29-.82,4.79-.16,7.19.23s5.18.34,6.83-1.44a6.58,6.58,0,0,0,1.38-4.79,13.93,13.93,0,0,0-1.26-5.19c-1.13-2.44-3-4.8-2.68-7.47a5.81,5.81,0,0,1,3.66-4.44,9.43,9.43,0,0,1,5.92-.18c1.93.51,3.75,1.44,5.72,1.7s4.29-.36,5.17-2.14c1.27-2.56-1.06-5.48-1-8.34"/><path class="cls-7" d="M569.1,510.31c1.61,11,2.22,22.15,4,33.13s4.38,22.93,9.34,33a2.88,2.88,0,0,0,1.37,1.57,2.63,2.63,0,0,0,2.23-.51,22.17,22.17,0,0,0,5.67-6c9.37-12.89,16-26.93,23.53-40.87,7.65-14.22,13.23-29.44,17.91-44.86a1.56,1.56,0,0,0,0-1.32,1.53,1.53,0,0,0-.78-.47c-9.9-3.45-20.48-4.28-30.93-5.08-13.12-1-26.62-2.81-39.78-2.26,1.53,4.56,2.27,9.39,3.48,14.05A183.66,183.66,0,0,1,569.1,510.31Z"/><path class="cls-13" d="M566.72,500.27a277.94,277.94,0,0,1,30.17-21.51"/><path class="cls-13" d="M570,518.92q24.27-18.4,47.55-38.09"/><path class="cls-13" d="M571.58,536.76c20.67-9.56,39-23.42,57.15-37.17"/><path class="cls-13" d="M574.79,558.09l38-22.15"/><path class="cls-13" d="M569.25,519.05q18,14.4,37.25,27.15"/><path class="cls-13" d="M572.71,546.07c8.55,5.17,14.63,14,23.75,18.11"/><path class="cls-13" d="M566.17,496.54a378.06,378.06,0,0,0,49,31.16"/><path class="cls-13" d="M580.88,477a122.82,122.82,0,0,1,27.8,19.93c4.7,4.48,9.36,9.53,15.62,11.26"/><path class="cls-13" d="M616.06,480.7a161,161,0,0,1,13.29,12.17"/><path class="cls-16" d="M657.91,416.87c-2.47-15.53-12.63-30.59-27.68-35.14a55.72,55.72,0,0,0-11.5-1.92,179.71,179.71,0,0,0-21.89-.56c-12.31.43-21.4,1.89-29.82,11.33-4.54,5.08-9.2,10.36-11.37,16.82a39.35,39.35,0,0,0-1.71,11.37c-.4,13.16,2.15,26.15,2.86,39.25.68,12.44,1.48,24.89,3.08,37.27a6.35,6.35,0,0,0,.77,2.69,3.31,3.31,0,0,0,3.52,1.37c4.5-1.18,8.91-14.07,10.5-18a12.67,12.67,0,0,1,2.41-4.38,4,4,0,0,1,4.56-1c2.43,1.33,1.75,4.9,1.16,7.61-1,4.66-.75,9.48-.47,14.24.08,1.26.24,2.69,1.26,3.44,2,1.47,4.5-1.2,5.36-3.55,2-5.56,2.92-12.05,7.49-15.83,1.44-1.18,4-1.81,4.91-.21a3.83,3.83,0,0,1,.35,1.93l.08,9.19c0,2.91,1,6.82,3.92,6.74a4.32,4.32,0,0,0,2.51-1.11c2.32-1.93,3.52-4.85,4.73-7.62s2.64-5.64,5.21-7.23,6.57-1.19,7.87,1.54a8,8,0,0,1,.39,4.14,154.41,154.41,0,0,1-2.66,18c-.4,1.93-.7,4.3.83,5.54,2.12,1.72,5.14-.54,6.79-2.72A76.09,76.09,0,0,0,643,487.67c2.34-7.2,2.81-14,6.54-20.59C657.61,452.9,660.44,432.83,657.91,416.87Z"/><path class="cls-6" d="M616.76,436.21a7.87,7.87,0,0,0-2.91,1.93,9,9,0,0,0-1.28,10.24,6.15,6.15,0,0,0,1.62,2.06c5.1,4,11.27-1.73,11.48-7.16S621.13,434.61,616.76,436.21Z"/><path class="cls-6" d="M575.85,438.92a9.07,9.07,0,0,0-2.91,1.24c-2.56,1.69-3,4.49-1.28,6.58a5,5,0,0,0,1.63,1.32c5.1,2.57,11.26-1.11,11.47-4.6S580.23,437.89,575.85,438.92Z"/><path class="cls-13" d="M618.19,456.42c2.24,0,3.82,2.34,4.18,4.55s-.1,4.47.11,6.7c.12,1.37.67,2.91,2,3.37a2.84,2.84,0,0,0,2.83-.8,6.09,6.09,0,0,0,1.39-2.72c.72-2.6.71-5.33,1.11-8s1.34-5.41,3.45-7.09"/><path class="cls-13" d="M640,421.63c1.88.95,2.87,3.08,3.21,5.16s.18,4.2.45,6.29c.17,1.39.72,3,2.05,3.42,1.63.56,3.26-1,3.88-2.57,1.39-3.62,0-8.14,2.31-11.27a1.82,1.82,0,0,1,1-.76c1.15-.28,1.81,1.24,2,2.39s1.07,2.64,2.16,2.19a2,2,0,0,0,.94-1.43,17.78,17.78,0,0,0,.57-5.43"/><path class="cls-6" d="M594.21,455.46a4.2,4.2,0,0,0,.5,2.93c.8,1.05,2.31,1.14,3.62,1.15,1,0,2.21-.08,2.81-.91a2.91,2.91,0,0,0,.42-1.51c.16-2.56-.17-10.79-3.3-11.6C594,444.41,594.41,452.9,594.21,455.46Z"/><path class="cls-13" d="M566.51,497.06l7-15.42c1.33-2.95,3.76-6.47,6.88-5.61a4.82,4.82,0,0,1,3.11,4.06,18.06,18.06,0,0,1-.41,5.37,46.34,46.34,0,0,0-.22,13,2.88,2.88,0,0,0,.67,1.79c1,1,2.69.07,3.61-1,4.41-5.08,4-13.4,9.22-17.7a2.93,2.93,0,0,1,2.7-.83c1.44.53,1.45,2.52,1.32,4A27,27,0,0,0,601.49,495c.68,2.18,2.51,4.69,4.68,4a4.24,4.24,0,0,0,2-1.77c2-2.82,3.26-6.06,5.23-8.87s4.9-5.29,8.33-5.42a3.92,3.92,0,0,1,3.34,1.27c.8,1.06.69,2.53.53,3.85l-3.07,25.8"/><path class="cls-13" d="M556.4,431.85a42.81,42.81,0,0,1,.65,11.58,6.57,6.57,0,0,0,.13,2.76,2.07,2.07,0,0,0,2.08,1.5c1-.15,1.58-1.26,1.87-2.26,1-3.65.67-7.54,1.12-11.31s2.06-7.82,5.52-9.38"/><path class="cls-17" d="M595.73,401.82a21.25,21.25,0,0,0-1-7.09c-1.82-4.91-5.73-8.81-7.26-14.12-4.08-14.1.49-30.25,10.31-40.65s24.26-15.14,38-14a37.46,37.46,0,0,1,11.22,2.58c5.63,2.34,10.48,6.4,15,10.71,4.94,4.74,9.62,9.93,12.8,16.15A45.38,45.38,0,0,1,679.64,375c.25,10.66-3.48,22-11.73,28a35.73,35.73,0,0,1-8.53,4.34c-11,4.18-21.71,4.86-33.18,5.93-4.48.42-6.85.53-11-1.77-1.79-1-9.08-6.76-10.95-4.93a3.31,3.31,0,0,0-.75,1.86l-1,5.5c-.22,1.22-.52,2.58-1.57,3.25-1.28.83-3.1.11-4-1.13a8.76,8.76,0,0,1-1.2-4.37C595.47,408.76,595.75,405.2,595.73,401.82Z"/><path class="cls-13" d="M586.13,381.1c5.37,3.25,7.68,9.87,8.42,16.11s.33,12.64,2.06,18.67a3.79,3.79,0,0,0,1,1.94c1.48,1.22,3.81-.31,4.34-2.16s0-3.82.24-5.73,1.65-4,3.54-3.71a4.92,4.92,0,0,1,1.59.7,51.57,51.57,0,0,0,48.95,1.25"/><path class="cls-13" d="M609.92,375.39c2.67.74,3.48,4.1,3.55,6.87s.08,6,2.29,7.67c1.55-.19,2.61-1.73,3-3.25s.27-3.13.62-4.66,1.37-3.08,2.92-3.32c.47,2.1,3.2,3.14,5.16,2.25a5.53,5.53,0,0,0,2.89-5.33"/><path class="cls-13" d="M610.59,339.41a12.27,12.27,0,0,0-3.43,3.38,4.18,4.18,0,0,0,0,4.57,4.07,4.07,0,0,0,4.89.76,9.7,9.7,0,0,0,3.68-3.78,21.59,21.59,0,0,1,3.1-4.33,8.34,8.34,0,0,1,5.79-2.26"/><path class="cls-13" d="M652.26,365.72a40.48,40.48,0,0,0,.11,6c.09,1,.6,2.22,1.55,2a1.54,1.54,0,0,0,.93-.74c2.34-3.43.51-8.19,1.65-12.18a1.51,1.51,0,0,1,.37-.72c.77-.73,1.88.46,2.26,1.46s1.43,2.21,2.25,1.52a1.58,1.58,0,0,0,.43-.78l1-2.76"/><path class="cls-6" d="M234.09,426.38c5.61,4.78,11.44,9.29,17.28,13.79a74.82,74.82,0,0,0,11,7.51c12.94,6.69,28.74,5.22,42.51.46a26.26,26.26,0,0,0,5.88-2.68,30.2,30.2,0,0,0,6.7-6.79c4.38-5.48,8.94-11.39,9.68-18.37.39-3.73-.35-7.47-1.09-11.15l-5.33-26.59c-2.83-14.14-5.67-28.34-6.43-42.74-.35-6.87-.24-13.77-1-20.61-.61-5.35-1.33-16.29-5.13-20.51-4.39-4.9-16-4.18-21.82-3.52-8.53,1-19.47,2.64-26.66,7.4A123.28,123.28,0,0,0,241,318.11,131.66,131.66,0,0,0,213.49,358c-5.78,13.09-10.12,29.53-4.13,43.38,1.78,4.14,5,6.78,8.27,9.76C223.15,416.22,228.39,421.53,234.09,426.38Z"/><path class="cls-11" d="M241.42,331.63a67.42,67.42,0,0,0,13.34-3.22c5.51-2.16,10.36-5.75,15.75-8.21,7-3.22,14.77-4.45,22.46-5.18,4.19-.39,8.56-.69,12.2-2.81s6.22-6.72,4.6-10.6c-2-4.81-8.49-5.42-13.69-5.07q-8.26.56-16.46,1.78C268,300.06,256.23,303,246.84,310c-5.85,4.38-10.44,10.14-14.53,16.13C226.19,335.08,234.59,332.8,241.42,331.63Z"/><path class="cls-11" d="M216.25,382.49c-6.27,4.59-9,9.23-5.19,16.77,1.78,3.51,4.48,6.45,7.15,9.33q12.54,13.59,25.09,27.16c3.12,3.37,10.1,3.6,14.58,4.25,12.67,1.87,25.59-1.34,37.46-6.15,8-3.24,16.85-8.76,17.36-17.41a7.82,7.82,0,0,0-1.64-5.67,13.36,13.36,0,0,0-3.18-2.33,35.78,35.78,0,0,1-13.33-14.66c-4.11-8.39-5.82-19.41-14.34-23.25-3.7-1.68-8-1.51-12-.73a42.19,42.19,0,0,0-14.53,5.81,9.52,9.52,0,0,1-9.38,1.78C233.26,375.58,223.86,376.91,216.25,382.49Z"/><path class="cls-7" d="M230.22,336.47a8.33,8.33,0,0,0,6,3.64,22.54,22.54,0,0,0,7.18-.38c1.27-.21,2.7-.54,3.35-1.65a4.45,4.45,0,0,0,.34-2.56l-.25-4.12c-.19-3.23-.84-7.11-3.84-8.32a5.73,5.73,0,0,0-5.28.89,14.39,14.39,0,0,0-3.63,4.2c-2,3.11-3.78,6.8-2.8,10.36"/><path class="cls-7" d="M266.47,327.59a4,4,0,0,0,1,2.21c1,.88,2.45.65,3.71.36l4.26-1c1.94-.44,4.05-1,5.2-2.6,2.05-2.87-.2-6.69-1.41-10-1.63-4.49-5.39-11.86-11.41-7.57C262.82,312.57,265.44,322.86,266.47,327.59Z"/><path class="cls-7" d="M302.49,304.11a1.79,1.79,0,0,1,.6.48,7,7,0,0,1,.83,1.63,50.74,50.74,0,0,1,2.82,9.59c.24,1.24.34,2.74-.64,3.54a3.52,3.52,0,0,1-1.62.62,37.78,37.78,0,0,1-6.37.63,3.91,3.91,0,0,1-2.09-.38,4.18,4.18,0,0,1-1.51-2.46l-1.6-5a10.48,10.48,0,0,1-.76-4.64,4.8,4.8,0,0,1,2.54-3.48,7.25,7.25,0,0,1,2.67-.75c.89-.12,1.78-.2,2.68-.24a5.56,5.56,0,0,1,1.63.11A3.92,3.92,0,0,1,302.49,304.11Z"/><path class="cls-7" d="M247.22,333.15a6.55,6.55,0,0,0,1.84,3.15c3.15,2.47,9.33-.75,12.37-2,2-.83,4.18-2,4.73-4.11.42-1.59-.23-3.24-.87-4.75-2.6-6.16-8.36-13.87-15.8-8.83C244,320.31,245.4,328,247.22,333.15Z"/><path class="cls-7" d="M280.88,321.45c.4,1.76.93,3.72,2.51,4.59,1.33.73,3,.42,4.44,0a23.78,23.78,0,0,0,5.07-2.34,3.33,3.33,0,0,0,1.49-1.5,3.54,3.54,0,0,0-.09-2c-1-4-1.66-9.86-4.83-12.83-3.72-3.49-9.4-1-10.6,3.32C278,313.9,280.18,318.3,280.88,321.45Z"/><path class="cls-7" d="M278.4,436.72l.19,0c3.52.75,4.16,3.92,4.56,7.19l.62,5a3.25,3.25,0,0,1-.2,2,3.06,3.06,0,0,1-1.69,1.14,28.06,28.06,0,0,1-7.41,1.62c-1.24.1-2.74,0-3.36-1.09a3.59,3.59,0,0,1-.36-1.49l-.6-6.62a10.59,10.59,0,0,1,.45-5.43C271.91,436.29,275.71,436.18,278.4,436.72Z"/><path class="cls-7" d="M295.73,432.23a12.65,12.65,0,0,0,.81,6.69,28,28,0,0,1,1.83,6.55c.1,1.14.1,2.48,1,3.18a3.18,3.18,0,0,0,2.47.33,15.79,15.79,0,0,0,7.43-3.39,2.87,2.87,0,0,0,1.12-1.5,3.28,3.28,0,0,0-.21-1.6l-2.55-8.22a13.1,13.1,0,0,0-2.18-4.69C302.42,426,296.69,427.84,295.73,432.23Z"/><path class="cls-7" d="M323.41,415.75c3.3.82,4.68,5.61,5.41,9,.8,3.75-.1,8.12-3.18,10.4-1.58,1.17-4.14,1.51-5.28-.08a5.8,5.8,0,0,1-.71-3,18.67,18.67,0,0,0-1.7-6.48c-2-4.21-3-7.45,2.39-9.51A5.05,5.05,0,0,1,323.41,415.75Z"/><path class="cls-7" d="M282.51,438.15l1.38,12.23c.21,1.83.6,3.94,2.23,4.8,1.36.72,3,.23,4.48-.27l6.51-2.24a1.94,1.94,0,0,0,1.61-2.61l-1.14-8.73c-.62-4.68-2.69-9.75-8.25-10C285.09,431.07,282,434,282.51,438.15Z"/><path class="cls-7" d="M311.69,446c4.25.29,7.83-3.74,8.46-8,.81-5.5-5.45-24-12.08-14C306.24,426.9,308.74,445.84,311.69,446Z"/><path class="cls-7" d="M265,436.63l-.3-.13c-1.93-.78-4-1.54-6.05-1.05s-5,2.38-5.75,4.5c-.41,1.14-.53,7.21.89,7.68l12,4a3.07,3.07,0,0,0,2.26.14c1.06-.51,1.14-2,1.07-3.15-.18-3.11-.46-8.07-2.34-10.74A4,4,0,0,0,265,436.63Z"/><path class="cls-6" d="M237.64,368.35a19,19,0,0,1,5.75,2,32.36,32.36,0,0,1,4.61,2.94,49.27,49.27,0,0,1,7.49,7.13q1.67,2,3.15,4.05a38.14,38.14,0,0,1,2.7,4.47l.3.61.26.56.5,1.14c.32.76.64,1.51,1,2.26l1.81,4.46a63.76,63.76,0,0,0,4,8.4,25.57,25.57,0,0,0,23.27,12.78l0,.23a27.33,27.33,0,0,1-18.87-4.11,27,27,0,0,1-4-3.14,32.44,32.44,0,0,1-3.36-3.78,66.11,66.11,0,0,1-5.29-8.39l-2.31-4.22c-.38-.7-.77-1.39-1.16-2.06l-.58-1-.3-.5-.28-.45a31.77,31.77,0,0,0-2.62-3.52,43.17,43.17,0,0,0-3.07-3.28,42.41,42.41,0,0,0-6.95-5.5,23.43,23.43,0,0,0-3.69-1.89,10.73,10.73,0,0,0-3.4-.84Z"/><path class="cls-2" d="M322.1,394.1c2.93,11.08,6.31,23,2.22,33.69-.76,2-1.37,5,.65,5.64,1.78.6,4.72,1.3,5.25-.5,7-23.64-15.64-80.83-11.75-110.91.76-5.89,2.82-16.48,1.54-22.27-2.19-9.89-6-16.75-16.75-19.38-7.48-1.83-15.33-.64-22.94.56-7.21,1.14-14.61,2.34-20.89,6.07a11,11,0,0,0-4.28,4,5,5,0,0,0,.31,5.55,6.76,6.76,0,0,0,3.7,1.84C270.39,301,282,296.26,293.54,297a14.24,14.24,0,0,1,10.75,5.55c5.54,6.54,5.28,16.11,6,24.12q1.43,16.14,4.15,32.13C316.45,370.64,319,382.46,322.1,394.1Z"/><path class="cls-18" d="M291.67,376.43A14.23,14.23,0,0,1,293.2,375a10.19,10.19,0,0,1,2.33-1.53,10.08,10.08,0,0,1,4-1.1,3.24,3.24,0,0,1,2.71,1.07c1.07,1.26,2.06,2.43,3,3.51s1.81,2.13,2.67,3.12l2.54,2.95c.83,1,1.67,2,2.54,3.11l.26-.12q-1.05-3.44-2.07-6.53t-2-6.06c-.68-2-1.36-3.93-2-5.87s-1.34-3.91-2-5.9a9.06,9.06,0,0,1,3.62-3.08,7.18,7.18,0,0,1,3.77-.76,3.36,3.36,0,0,1,2.77,2.16c.37.78.81,1.91,1.33,3.4s1.06,3.18,1.63,5.06,1.14,3.87,1.7,6,1.08,4.11,1.53,6.05.8,3.71,1.08,5.32a28,28,0,0,1,.43,3.83,6.7,6.7,0,0,1-2,2.43,16.64,16.64,0,0,1-3.46,2.23,13.21,13.21,0,0,1-4.49,1.33,3.47,3.47,0,0,1-3-.88c-1.12-1.19-2.41-2.62-3.85-4.3s-3-3.53-4.71-5.56q.9,3.76,1.65,7.4c.51,2.43.91,4.49,1.21,6.2a6.53,6.53,0,0,1-1.79,2.33,13.25,13.25,0,0,1-3.25,2.13,14.59,14.59,0,0,1-4.6,1.38,4.45,4.45,0,0,1-3.38-.68,19.78,19.78,0,0,1-2.37-2.33q-1.44-1.61-3.15-3.72c-1.15-1.41-2.36-2.95-3.65-4.62s-2.54-3.35-3.75-5-2.39-3.36-3.51-5-2.11-3.16-2.95-4.57a8.3,8.3,0,0,1,1.45-2.23,7.63,7.63,0,0,1,2.57-1.93,6.34,6.34,0,0,1,3.7-.7,4.49,4.49,0,0,1,3,2.16q3.39,5,5.65,8.28l3.68,5.43c.95,1.42,1.68,2.53,2.19,3.32s.92,1.4,1.26,1.84l.27-.12c-.36-1.55-.67-3-1-4.32s-.57-2.66-.85-4-.58-2.8-.93-4.33S292.17,378.39,291.67,376.43Z"/><path class="cls-18" d="M321.18,361.89a7.26,7.26,0,0,1-1.43-1.26,7.44,7.44,0,0,1-1.32-1.95,4.4,4.4,0,0,1-.48-3.38,3.67,3.67,0,0,1,2-2l22.93-10.9a7.51,7.51,0,0,1,1.43,1.25,7.66,7.66,0,0,1,1.32,2,4.4,4.4,0,0,1,.48,3.38,3.62,3.62,0,0,1-2,2l-5.84,2.78,11.56,24.3a15.17,15.17,0,0,1-1.67,1.17,19.76,19.76,0,0,1-2.37,1.32,11.58,11.58,0,0,1-2.21.83,4.14,4.14,0,0,1-1.87.08,3.11,3.11,0,0,1-1.57-.86,7.19,7.19,0,0,1-1.37-2.06l-9.7-20.41Z"/><path class="cls-18" d="M370.8,329.27a6.78,6.78,0,0,1,1.39,1.24,7.61,7.61,0,0,1,1.25,1.88,4.45,4.45,0,0,1,.53,3.33,3.49,3.49,0,0,1-1.93,2L361,343l2.83,5.94,11.52-5.48a5.88,5.88,0,0,1,1.43,1.19,7.28,7.28,0,0,1,1.24,1.86,4.36,4.36,0,0,1,.5,3.28,3.55,3.55,0,0,1-1.93,2l-9.2,4.38,5.27,11.09a16,16,0,0,1-1.66,1.18,21.43,21.43,0,0,1-2.37,1.32,11.9,11.9,0,0,1-2.22.83,4.13,4.13,0,0,1-1.87.08,3.19,3.19,0,0,1-1.57-.86,7.19,7.19,0,0,1-1.36-2.06l-10.88-22.88a5,5,0,0,1,2.57-7.22Z"/><path class="cls-18" d="M390,345.8a5.29,5.29,0,0,1-2.5-.91,5.83,5.83,0,0,1-2.17-2.55,3.51,3.51,0,0,1-.3-2.85,6.24,6.24,0,0,1,2-2.45l3.63-3c1.54-1.29,2-2.55,1.43-3.78a2.39,2.39,0,0,0-1.8-1.27,6.33,6.33,0,0,0-3.69.85,15.82,15.82,0,0,0-3.79,2.48,13.16,13.16,0,0,0-2.43,2.74,7.15,7.15,0,0,1-2.32-.93,4.64,4.64,0,0,1-1.74-2,4.27,4.27,0,0,1-.35-2.77,6.4,6.4,0,0,1,1.38-2.72,13.89,13.89,0,0,1,2.85-2.55,29.22,29.22,0,0,1,4.09-2.33q6.19-3,10.7-1.7a10.11,10.11,0,0,1,6.62,5.72q4,8.41-6.76,16.43Zm1.54,7.71A5.59,5.59,0,1,1,402,352.9a5.48,5.48,0,0,1-3,3.16,5.22,5.22,0,0,1-7.4-2.55Z"/><path class="cls-19" d="M293,373.69a16.3,16.3,0,0,1,1.53-1.47,10.48,10.48,0,0,1,2.34-1.53,10,10,0,0,1,4-1.09,3.19,3.19,0,0,1,2.7,1.07l3,3.51c.93,1.09,1.82,2.13,2.67,3.11s1.71,2,2.54,3,1.68,2,2.54,3.11l.27-.13c-.71-2.28-1.4-4.46-2.08-6.52s-1.36-4.08-2-6.06l-2-5.87q-1-2.91-2-5.91a9.24,9.24,0,0,1,3.63-3.08,7.13,7.13,0,0,1,3.76-.75,3.34,3.34,0,0,1,2.77,2.16,34.42,34.42,0,0,1,1.33,3.4c.52,1.5,1.06,3.18,1.63,5.06s1.14,3.86,1.71,6,1.07,4.11,1.52,6.05.81,3.71,1.08,5.32a26.54,26.54,0,0,1,.43,3.82,6.72,6.72,0,0,1-2,2.44,15.72,15.72,0,0,1-3.46,2.22,12.66,12.66,0,0,1-4.49,1.33,3.41,3.41,0,0,1-3-.88q-1.69-1.77-3.85-4.29t-4.71-5.57c.59,2.52,1.14,5,1.65,7.41s.91,4.49,1.2,6.2a6.5,6.5,0,0,1-1.79,2.33,13.16,13.16,0,0,1-3.24,2.12,14.89,14.89,0,0,1-4.6,1.39,4.46,4.46,0,0,1-3.39-.68,21.52,21.52,0,0,1-2.36-2.33q-1.44-1.61-3.16-3.72c-1.14-1.41-2.36-2.95-3.64-4.62s-2.54-3.35-3.76-5.05-2.39-3.37-3.51-5-2.1-3.15-2.94-4.56a8.24,8.24,0,0,1,1.45-2.24,7.8,7.8,0,0,1,2.57-1.93,6.38,6.38,0,0,1,3.69-.69,4.5,4.5,0,0,1,3,2.15l5.64,8.28q2.25,3.31,3.68,5.44c1,1.42,1.68,2.52,2.19,3.31s.93,1.41,1.27,1.85l.26-.12c-.35-1.56-.67-3-1-4.32s-.57-2.66-.84-4-.59-2.8-.93-4.34S293.48,375.65,293,373.69Z"/><path class="cls-19" d="M322.5,359.14a7.84,7.84,0,0,1-1.44-1.25,8,8,0,0,1-1.31-1.95,4.42,4.42,0,0,1-.48-3.39,3.66,3.66,0,0,1,2-2l22.93-10.9a7.84,7.84,0,0,1,1.44,1.25,7.63,7.63,0,0,1,1.31,2,4.4,4.4,0,0,1,.48,3.38,3.63,3.63,0,0,1-2,2L339.59,351l11.55,24.29a16,16,0,0,1-1.66,1.18,21.43,21.43,0,0,1-2.37,1.32,12.65,12.65,0,0,1-2.22.83,4.13,4.13,0,0,1-1.87.08,3.13,3.13,0,0,1-1.57-.87,7.12,7.12,0,0,1-1.36-2.05l-9.7-20.41Z"/><path class="cls-19" d="M372.11,326.52a6.8,6.8,0,0,1,1.4,1.24,7.85,7.85,0,0,1,1.25,1.89,4.48,4.48,0,0,1,.52,3.33,3.52,3.52,0,0,1-1.93,2l-11,5.25,2.82,5.94,11.52-5.47a5.87,5.87,0,0,1,1.44,1.19,7.84,7.84,0,0,1,1.24,1.86,4.4,4.4,0,0,1,.49,3.28,3.52,3.52,0,0,1-1.93,2l-9.2,4.37,5.28,11.1a16.41,16.41,0,0,1-1.67,1.18,19.76,19.76,0,0,1-2.37,1.32,12.37,12.37,0,0,1-2.22.83,4.24,4.24,0,0,1-1.86.08,3.21,3.21,0,0,1-1.57-.87,7.05,7.05,0,0,1-1.37-2.06L352,342.07a5,5,0,0,1,2.57-7.22Z"/><path class="cls-19" d="M391.32,343.05a5.12,5.12,0,0,1-2.49-.91,5.82,5.82,0,0,1-2.18-2.54,3.54,3.54,0,0,1-.3-2.86,6.44,6.44,0,0,1,2-2.45l3.62-3q2.31-1.92,1.43-3.77a2.33,2.33,0,0,0-1.79-1.27,6.23,6.23,0,0,0-3.69.85,15.82,15.82,0,0,0-3.79,2.48,13.22,13.22,0,0,0-2.44,2.73,7.19,7.19,0,0,1-2.31-.93,4.67,4.67,0,0,1-1.75-2,4.16,4.16,0,0,1-.34-2.76,6.49,6.49,0,0,1,1.38-2.73,13.86,13.86,0,0,1,2.85-2.54,28.66,28.66,0,0,1,4.08-2.33q6.21-3,10.7-1.71a10.09,10.09,0,0,1,6.62,5.72q4,8.41-6.76,16.44Zm1.54,7.72a5.21,5.21,0,1,1,3,2.91A5.42,5.42,0,0,1,392.86,350.77Z"/><path class="cls-7" d="M294.13,369.56a14.1,14.1,0,0,1,1.53-1.47,10.19,10.19,0,0,1,2.33-1.53,10,10,0,0,1,4-1.09,3.17,3.17,0,0,1,2.7,1.07l3,3.51c.92,1.08,1.81,2.12,2.67,3.11s1.7,2,2.53,2.95,1.68,2,2.55,3.12l.26-.13c-.7-2.29-1.39-4.46-2.07-6.53s-1.36-4.08-2-6.05-1.36-3.94-2-5.88l-2-5.9a9.24,9.24,0,0,1,3.63-3.08,7.28,7.28,0,0,1,3.77-.76,3.37,3.37,0,0,1,2.77,2.17,34.42,34.42,0,0,1,1.33,3.4c.51,1.49,1.06,3.18,1.63,5.06s1.14,3.86,1.7,6,1.08,4.11,1.52,6,.81,3.71,1.08,5.32a26.94,26.94,0,0,1,.44,3.83,6.64,6.64,0,0,1-2,2.43,15.56,15.56,0,0,1-3.45,2.23,13.21,13.21,0,0,1-4.49,1.33,3.47,3.47,0,0,1-3-.88c-1.12-1.19-2.41-2.62-3.85-4.3s-3-3.53-4.71-5.56q.9,3.76,1.65,7.41c.51,2.42.91,4.49,1.21,6.19a6.64,6.64,0,0,1-1.79,2.34,13.52,13.52,0,0,1-3.25,2.12,14.59,14.59,0,0,1-4.6,1.38,4.4,4.4,0,0,1-3.38-.68,19.55,19.55,0,0,1-2.37-2.32c-.95-1.07-2-2.31-3.15-3.73s-2.36-2.95-3.65-4.61-2.54-3.35-3.75-5-2.39-3.37-3.51-5-2.11-3.16-2.95-4.56a8.33,8.33,0,0,1,1.45-2.24,7.77,7.77,0,0,1,2.57-1.93,6.49,6.49,0,0,1,3.7-.7,4.52,4.52,0,0,1,3,2.16l5.64,8.28c1.51,2.21,2.73,4,3.69,5.44s1.68,2.52,2.19,3.31.92,1.41,1.26,1.85l.26-.13c-.35-1.55-.67-3-.95-4.31s-.57-2.67-.85-4-.58-2.79-.93-4.33S294.63,371.51,294.13,369.56Z"/><path class="cls-7" d="M323.64,355a7.51,7.51,0,0,1-1.43-1.25,7.66,7.66,0,0,1-1.32-2,4.4,4.4,0,0,1-.48-3.38,3.62,3.62,0,0,1,2-2l22.93-10.91a8.43,8.43,0,0,1,2.75,3.21,4.4,4.4,0,0,1,.48,3.38,3.67,3.67,0,0,1-2,2l-5.84,2.77,11.56,24.3a16.41,16.41,0,0,1-1.67,1.18,21.25,21.25,0,0,1-2.37,1.32,12.65,12.65,0,0,1-2.22.83,4.24,4.24,0,0,1-1.86.08,3.21,3.21,0,0,1-1.57-.87,7.05,7.05,0,0,1-1.37-2.06l-9.7-20.4Z"/><path class="cls-7" d="M373.26,322.39a6.78,6.78,0,0,1,1.39,1.24,8,8,0,0,1,1.26,1.89,4.47,4.47,0,0,1,.52,3.33,3.55,3.55,0,0,1-1.93,2l-11.05,5.25,2.83,5.94,11.52-5.47a5.6,5.6,0,0,1,1.43,1.18,7.55,7.55,0,0,1,1.24,1.86,4.42,4.42,0,0,1,.5,3.28,3.49,3.49,0,0,1-1.93,2l-9.2,4.38,5.27,11.1a15.85,15.85,0,0,1-1.66,1.17,23.31,23.31,0,0,1-2.37,1.33,12.55,12.55,0,0,1-2.22.82,4.09,4.09,0,0,1-1.86.08,3.1,3.1,0,0,1-1.58-.86,7.19,7.19,0,0,1-1.36-2.06l-10.88-22.88a5,5,0,0,1,2.57-7.21Z"/><path class="cls-7" d="M392.47,338.92A5.29,5.29,0,0,1,390,338a5.89,5.89,0,0,1-2.18-2.54,3.57,3.57,0,0,1-.29-2.86,6.31,6.31,0,0,1,2-2.45l3.63-3q2.3-1.93,1.43-3.77a2.4,2.4,0,0,0-1.8-1.28A6.36,6.36,0,0,0,389,323a15.79,15.79,0,0,0-3.79,2.47,13.16,13.16,0,0,0-2.43,2.74,7.15,7.15,0,0,1-2.32-.93,4.7,4.7,0,0,1-1.74-2,4.25,4.25,0,0,1-.35-2.77,6.45,6.45,0,0,1,1.38-2.72,13.89,13.89,0,0,1,2.85-2.55,29.22,29.22,0,0,1,4.09-2.33q6.19-2.94,10.7-1.7a10.11,10.11,0,0,1,6.62,5.72q4,8.41-6.76,16.43Zm1.54,7.71a5.2,5.2,0,0,1,2.69-7.34,5.61,5.61,0,1,1-2.69,7.34Z"/><path class="cls-2" d="M319.73,297.43c-.92-5.24-3.77-9.18-7.91-12.91-4.84-4.37-11.26-5.29-17.77-5.14-13.26.32-28.59,3.83-41.08,8.28-11.05,3.93-19.66,12.24-26,22S216.32,330.78,213,342.1c-3,10.45-6.12,20.68-9.73,31l-.09.27A43.33,43.33,0,0,0,200.46,384c-1,11,9.95,22.26,16.5,30.1,7.19,8.61,15.08,16.48,22.9,24.5,7.31,7.49,14,15.24,22.26,21.8a37.78,37.78,0,0,0,8.82,5.61c5.53,2.28,11.73,2.19,17.7,1.7,9.75-.81,19.71-2.7,27.92-8,15-9.74,15.08-28.25,14.31-44.37-3.75,7-7,14.49-12.7,20-10.38,10-26.17,11.23-40.58,11.88-5.94.27-12.14.49-17.53-2-3.81-1.76-6.89-4.73-9.88-7.67q-15.31-15.08-30-30.8c-8.77-9.41-14.5-18.08-9.51-30.61s10.29-25,17.77-36.24c8.7-13.08,20.65-24.54,35.44-29.82,7.56-2.71,15.61-3.72,23.58-4.72,9.62-1.21,19.93-2.31,28.54,2.14.6.31,3.42,2.1,4,2.42A45.29,45.29,0,0,0,319.73,297.43Z"/><path class="cls-13" d="M298.46,409.69c19.66-6,44-4.91,58.66,1.78"/><path class="cls-13" d="M284.07,344.17a243,243,0,0,0,48.84-38.41"/><path class="cls-13" d="M338.72,322.32q18.93-12.4,36.7-26.44"/><path class="cls-13" d="M421,339.1a33.91,33.91,0,0,0,10.86-5c1.68-1.16,3.39-2.77,3.36-4.81a3.45,3.45,0,0,0-6.56-1.46,4.53,4.53,0,0,0,1.27,5.08,9.79,9.79,0,0,0,5.1,2.14,24.1,24.1,0,0,0,9.27-.25"/><path class="cls-13" d="M229.75,339.73c13.18-16.57,19.34-22.88,32.43-28.42,11.56-4.89,24.37-5.7,36.9-6.45,2.92-.17,6-.31,8.59,1.08,3.6,1.94,5.12,6.22,6.34,10.12"/><path class="cls-13" d="M327.17,405.91c-.31,8.12-1.1,16.56-5.28,23.53-6.9,11.49-21.24,16.15-34.58,17.41-12.13,1.14-25.16,0-35-7.14a67.41,67.41,0,0,1-8.64-7.92l-14.45-14.9A152.06,152.06,0,0,1,218.39,405a76.85,76.85,0,0,1-9.32-15.23c-3.13-6.75,1.83-13.78,8-17.91"/><path class="cls-6" d="M234.68,1099.8c.59.5,1.18,1,1.79,1.42a.56.56,0,0,1,.25.33.72.72,0,0,1-.22.5l-5.64,6.75a1.62,1.62,0,0,1-1,.7,1.33,1.33,0,0,1-.83-.34c-7.4-5.29-13.61-13-19.69-20.16l-2.9-3.41a14.77,14.77,0,0,1-2.72-4.86c-.63-2.57,32-13,36.15-12-.6,3.42.67,6.74.86,10.16a1.32,1.32,0,0,1-.12.74,1.07,1.07,0,0,1-.52.37,47.39,47.39,0,0,1-5.79,1.84L221,1085.69C225.5,1090.21,229.83,1095.7,234.68,1099.8Z"/><path class="cls-6" d="M280.82,1089.91c-.58-.49-1.18-1-1.78-1.42a.53.53,0,0,1-.25-.32.66.66,0,0,1,.22-.5l5.63-6.75a1.58,1.58,0,0,1,1-.7,1.26,1.26,0,0,1,.82.33c7.41,5.3,13.62,13,19.7,20.16l2.9,3.41a14.67,14.67,0,0,1,2.71,4.86c.64,2.57-32,13-36.15,12,.61-3.42-.67-6.74-.85-10.16a1.17,1.17,0,0,1,.12-.74,1,1,0,0,1,.52-.36,44.76,44.76,0,0,1,5.79-1.85l13.39-3.87C290,1099.5,285.68,1094,280.82,1089.91Z"/><path class="cls-18" d="M355,239.4a6.91,6.91,0,0,0,1.5,2.22,2.27,2.27,0,0,0,2.49.44c1-.58,1.16-2,1.15-3.2l-.12-10a11.68,11.68,0,0,0-.67-4.64c-1.71-4-15.78-9.51-16-3.17-.1,2.93,4.19,6.05,5.76,8.25A75.73,75.73,0,0,1,355,239.4Z"/><path class="cls-20" d="M312.55,209.6c-4.1-.64-8.26-1.35-12-3.12s-7.11-4.78-8.38-8.73-.31-8.38,1.73-12,5.06-6.58,8.12-9.4c5.26-4.86,10.84-9.53,17.35-12.51,8.07-3.69,17.12-4.59,26-4.81a58.73,58.73,0,0,1,15.1,1.13c15.19,3.61,26.18,16.88,33.4,30.72,2.21,4.23,4.21,8.68,4.78,13.43s-.46,9.87-3.66,13.41c-6.49,7.17-21.29,3.68-30,3.45-7.89-.22-15.19,1.11-23,1.86-5.72.54-11.64.78-17-1.16s-10.2-6.53-10.81-12.24l-10.51-2.33"/><path class="cls-13" d="M357.52,190.84a55.7,55.7,0,0,0-39.42,10.34c-2.84,2.09-5.75,5.26-4.88,8.68"/><path class="cls-13" d="M326.11,213c1.79-8.4,13.52-8,20.27-8.44s13.94-.5,20.54-2.58,12.87-6.67,14.9-13.28"/><path class="cls-7" d="M360.54,230.62a23.1,23.1,0,0,0,7.76,1,59.62,59.62,0,0,0,8.12-.62c2.14-.32,4.47-.89,5.71-2.66,1-1.44,1.05-3.33,1-5.1a1.71,1.71,0,0,0-.32-1.18,1.66,1.66,0,0,0-1.11-.38c-5.5-.51-10.61-1.48-16.15-1.39-3.12.06-6.24.19-9.36.41-1.18.09-7.88,1.49-8.55.83C351.43,225.3,355.42,228.82,360.54,230.62Z"/><path class="cls-13" d="M313.81,182.23c2.61-1.23,4.1-4.07,6.54-5.61a7.92,7.92,0,0,1,8.42.12,16.87,16.87,0,0,1,1.43,1.13"/><path class="cls-13" d="M331.07,185.52a16.35,16.35,0,0,1-.23-8.55c.89-2.9,3-5.23,4.36-7.95s1.67-6.45-.64-8.41"/><path class="cls-13" d="M357.91,181.53a15.19,15.19,0,0,0,2.63-10.4"/><path class="cls-13" d="M360.64,177.7c1.87.34,5.92.67,7.56,1.63a5.56,5.56,0,0,1,3,4.55,9.44,9.44,0,0,0,0,1.68,1.25,1.25,0,0,0,1.09,1.11"/><path class="cls-13" d="M369.18,179.36a4.78,4.78,0,0,0,4.33-7.16"/><path class="cls-13" d="M362.19,186.42a5.39,5.39,0,0,0-2.62,8.72"/><path class="cls-13" d="M348.71,204.35a5.65,5.65,0,0,1-.57-7.39"/><path class="cls-13" d="M321.46,205.68c3-.64,6.08.14,8.93,1.14"/><path class="cls-13" d="M346.24,166.75a5.82,5.82,0,0,1,7.37-2.1"/><path class="cls-13" d="M380.93,186.79a10.82,10.82,0,0,0,3.71,4.31"/><path class="cls-13" d="M343.05,223a96.52,96.52,0,0,1,41.05-1.35"/><path class="cls-13" d="M361.07,230.57a38.45,38.45,0,0,1-7.47-3.17,13,13,0,0,1-5.44-5.84"/><polygon class="cls-7" points="643.52 177.37 631.43 170.03 638.76 157.94 629.7 152.44 622.36 164.53 610.27 157.2 604.77 166.26 616.86 173.6 609.52 185.69 618.59 191.19 625.93 179.1 638.02 186.44 643.52 177.37"/><path class="cls-6" d="M208.13,192.48c-52.32,19-37.11,10.73-82.8,40.86-2.58-5.31-5.27-10.57-7.8-15.91C161.4,185,152,195,200.6,177.47,203.43,182.34,205.8,187.36,208.13,192.48Z"/><path class="cls-6" d="M214.94,207.14c-49.23,15.66-41.36,1.29-83,39-3-4.1-4.73-8.86-6.94-13.4,45.82-30.28,30.35-21.75,82.8-40.91C210.16,196.93,213.25,201.76,214.94,207.14Z"/><path class="cls-6" d="M193.13,162.67c-56.41,20.75-34.16,7.62-82.59,42-2.64-4.76-4.33-10.12-8.06-14.18,45.66-34.84,29.57-25,84.21-42.11C188,153.49,190.92,157.92,193.13,162.67Z"/><path class="cls-6" d="M200.6,177.47c-48.62,17.52-39.2,7.58-83.07,40-2.1-4.39-4.6-8.54-7-12.77,48.47-34.5,26.23-21.21,82.59-42C195.47,167.7,197.81,172.66,200.6,177.47Z"/><rect class="cls-6" x="207.25" y="142.51" width="4.32" height="100.05" transform="translate(-64.81 116.87) rotate(-27.17)"/><path class="cls-2" d="M165.2,202.66l-11.3-15.49c.06.68.09,1.07.14,1.46.37,3.13.78,6.25,1.12,9.39.39,3.69,0,7.26-2.47,10.23a35.19,35.19,0,0,1-3.45,3.13L130.47,186.7a20.36,20.36,0,0,1,2.23-.76,9.71,9.71,0,0,1,10.61,4.41c1,1.57,1.95,3.16,2.92,4.75s1.9,3.19,3,4.78c0-.31,0-.63-.07-.94-.46-3.89-.94-7.78-1.4-11.68a15.3,15.3,0,0,1,.52-6.76,9.88,9.88,0,0,1,5.13-5.91l5.93,8.38,6,8.48c0-.36,0-.57,0-.76-.66-3.62-1.34-7.24-2-10.86a14.32,14.32,0,0,1,.77-8.36,10.24,10.24,0,0,1,5-5.21c.21,2.18.42,4.22.63,6.27q.84,8.37,1.69,16.73A16.1,16.1,0,0,1,171,196,11.41,11.41,0,0,1,165.2,202.66Z"/><path class="cls-6" d="M115,265.18c-.06,5.58,3.25,10.7,7.3,14.55s8.86,6.78,13.06,10.46c2.36,2.07,4.57,4.39,7.35,5.85s6.4,1.86,8.95,0a11.1,11.1,0,0,0,3.43-5.1,52.82,52.82,0,0,0,2.38-32,25.33,25.33,0,0,0-4-9.41c-4.79-6.36-9.84-1.87-10.63,4.56l-1.22,9.9c-3.78-4.35-13.89-11.93-20.12-9.22h0C117.57,256.55,115.05,261,115,265.18Z"/></g></g></svg>